<?xml version="1.0" encoding="UTF-8" standalone="no"?><!-- Generator: Gravit.io --><svg xmlns="http://www.w3.org/2000/svg" xmlns:xlink="http://www.w3.org/1999/xlink" style="isolation:isolate" viewBox="0 0 48 48" width="48pt" height="48pt"><defs><clipPath id="_clipPath_zFNymzGqqReOqLSzcCAoYrCUWmXV8MHw"><rect width="48" height="48"/></clipPath></defs><g clip-path="url(#_clipPath_zFNymzGqqReOqLSzcCAoYrCUWmXV8MHw)"><path d=" M 0 0 L 48 0 L 48 48 L 0 48 L 0 0 Z " fill="none"/><clipPath id="_clipPath_uONYvEgD2E7AYlkPgXimg9ZJ6iep4bIE"><path d=" M 0 0 L 48 0 L 48 48 L 0 48 L 0 0 Z " fill="rgb(255,255,255)"/></clipPath><g clip-path="url(#_clipPath_uONYvEgD2E7AYlkPgXimg9ZJ6iep4bIE)"><g><path d=" M 0 0 L 48 0 L 48 48 L 0 48 L 0 0 Z " fill="none"/><g><linearGradient id="_lgradient_0" x1="0.30690792942237904" y1="0.00024285714285721127" x2="0.5000008220349217" y2="0.8824430191962733" gradientTransform="matrix(48,0,0,48,0,0)" gradientUnits="userSpaceOnUse"><stop offset="0%" stop-opacity="1" style="stop-color:rgb(255,247,58)"/><stop offset="100%" stop-opacity="1" style="stop-color:rgb(17,233,207)"/></linearGradient><path d=" M 8.692 48 C 25.778 46.506 40.764 35.999 48 20.45 C 38.96 7.551 24.258 0 8.693 0 C 7.298 0 5.896 0.061 4.49 0.184 C -2.746 15.733 -1.159 33.945 8.692 48 Z " fill-rule="evenodd" fill="url(#_lgradient_0)"/><linearGradient id="_lgradient_1" x1="0.00787665559648798" y1="0.3911140917092798" x2="0.729602341303336" y2="0.819447175240483" gradientTransform="matrix(43.463,0,0,20.45,4.537,0)" gradientUnits="userSpaceOnUse"><stop offset="0%" stop-opacity="1" style="stop-color:rgb(183,255,29)"/><stop offset="100%" stop-opacity="1" style="stop-color:rgb(39,135,255)"/></linearGradient><path d=" M 4.537 0.184 C 4.537 0.184 19.756 5.554 29.793 20.45 L 48 20.45 C 39.003 7.551 24.304 0 8.74 0 C 7.345 0 5.943 0.061 4.537 0.184 Z " fill-rule="evenodd" fill="url(#_lgradient_1)"/><linearGradient id="_lgradient_2" x1="0.07491125086132466" y1="1.0021090090146136" x2="0.7729068722797408" y2="0.06770487116779411" gradientTransform="matrix(39.308,0,0,27.555,8.691,20.445)" gradientUnits="userSpaceOnUse"><stop offset="0%" stop-opacity="1" style="stop-color:rgb(81,203,255)"/><stop offset="100%" stop-opacity="1" style="stop-color:rgb(0,63,185)"/></linearGradient><path d=" M 29.795 20.45 C 27.6 34.963 8.691 48 8.691 48 C 25.882 46.368 40.967 36.063 47.999 20.445 L 29.795 20.45 Z " fill-rule="evenodd" fill="url(#_lgradient_2)"/></g></g></g></g></svg>